<svg width="32" height="28" viewBox="0 0 32 28" fill="none" xmlns="http://www.w3.org/2000/svg">
<path d="M16 8.00001C17 4.05251 20.7769 2.03688 29 2.00001C29.1315 1.99951 29.2617 2.02504 29.3833 2.07512C29.5048 2.1252 29.6153 2.19884 29.7082 2.29179C29.8012 2.38475 29.8748 2.49519 29.9249 2.61674C29.975 2.73829 30.0005 2.86855 30 3.00001V21C30 21.2652 29.8946 21.5196 29.7071 21.7071C29.5196 21.8946 29.2652 22 29 22C21 22 17.9094 23.6131 16 26M16 8.00001C15 4.05251 11.2231 2.03688 3.00001 2.00001C2.86855 1.99951 2.73829 2.02504 2.61674 2.07512C2.49519 2.1252 2.38475 2.19884 2.29179 2.29179C2.19884 2.38475 2.1252 2.49519 2.07512 2.61674C2.02504 2.73829 1.99951 2.86855 2.00001 3.00001V20.8794C2.00001 21.4969 2.38251 22 3.00001 22C11 22 14.1019 23.625 16 26M16 8.00001V26" stroke="#036DC4" stroke-width="2.5" stroke-linecap="round" stroke-linejoin="round"/>
</svg>
