<svg width="24" height="25" viewBox="0 0 24 25" fill="none" xmlns="http://www.w3.org/2000/svg">
<path d="M11 2.58252H9C4 2.58252 2 4.58252 2 9.58252V15.5825C2 20.5825 4 22.5825 9 22.5825H15C20 22.5825 22 20.5825 22 15.5825V13.5825" stroke="#6A778B" stroke-width="1.5" stroke-linecap="round" stroke-linejoin="round"/>
<path d="M16.0379 3.60253L8.15793 11.4825C7.85793 11.7825 7.55793 12.3725 7.49793 12.8025L7.06793 15.8125C6.90793 16.9025 7.67793 17.6625 8.76793 17.5125L11.7779 17.0825C12.1979 17.0225 12.7879 16.7225 13.0979 16.4225L20.9779 8.54253C22.3379 7.18253 22.9779 5.60253 20.9779 3.60253C18.9779 1.60253 17.3979 2.24253 16.0379 3.60253Z" stroke="#6A778B" stroke-width="1.5" stroke-miterlimit="10" stroke-linecap="round" stroke-linejoin="round"/>
<path d="M14.9062 4.73242C15.5763 7.12242 17.4463 8.99242 19.8463 9.67242" stroke="#6A778B" stroke-width="1.5" stroke-miterlimit="10" stroke-linecap="round" stroke-linejoin="round"/>
</svg>
