<svg width="24" height="25" viewBox="0 0 24 25" fill="none" xmlns="http://www.w3.org/2000/svg">
<path d="M21.9331 7.34253L18.5631 20.8726C18.3231 21.8826 17.4231 22.5825 16.3831 22.5825H3.24306C1.73306 22.5825 0.653075 21.1025 1.10308 19.6525L5.31307 6.13257C5.60307 5.19257 6.47308 4.54248 7.45308 4.54248H19.7531C20.7031 4.54248 21.4931 5.12249 21.8231 5.92249C22.0131 6.35249 22.0531 6.84253 21.9331 7.34253Z" stroke="#6A778B" stroke-width="1.5" stroke-miterlimit="10"/>
<path d="M16 22.5825H20.78C22.07 22.5825 23.08 21.4925 22.99 20.2025L22 6.58252" stroke="#6A778B" stroke-width="1.5" stroke-miterlimit="10" stroke-linecap="round" stroke-linejoin="round"/>
<path d="M9.67969 6.96252L10.7197 2.64258" stroke="#6A778B" stroke-width="1.5" stroke-miterlimit="10" stroke-linecap="round" stroke-linejoin="round"/>
<path d="M16.3828 6.97253L17.3228 2.63257" stroke="#6A778B" stroke-width="1.5" stroke-miterlimit="10" stroke-linecap="round" stroke-linejoin="round"/>
<path d="M7.70312 12.5825H15.7031" stroke="#6A778B" stroke-width="1.5" stroke-miterlimit="10" stroke-linecap="round" stroke-linejoin="round"/>
<path d="M6.70312 16.5825H14.7031" stroke="#6A778B" stroke-width="1.5" stroke-miterlimit="10" stroke-linecap="round" stroke-linejoin="round"/>
</svg>
