<svg width="24" height="24" viewBox="0 0 24 24" fill="none" xmlns="http://www.w3.org/2000/svg">
<path d="M17.5381 8.31185C18.8967 8.31185 19.9981 7.21047 19.9981 5.85185C19.9981 4.49322 18.8967 3.39185 17.5381 3.39185C16.1795 3.39185 15.0781 4.49322 15.0781 5.85185C15.0781 7.21047 16.1795 8.31185 17.5381 8.31185Z" stroke="#FAFDFF" stroke-width="1.5" stroke-miterlimit="10" stroke-linecap="round" stroke-linejoin="round"/>
<path d="M6.46001 8.31185C7.81863 8.31185 8.92 7.21047 8.92 5.85185C8.92 4.49322 7.81863 3.39185 6.46001 3.39185C5.10139 3.39185 4 4.49322 4 5.85185C4 7.21047 5.10139 8.31185 6.46001 8.31185Z" stroke="#FAFDFF" stroke-width="1.5" stroke-miterlimit="10" stroke-linecap="round" stroke-linejoin="round"/>
<path d="M17.5381 20.6119C18.8967 20.6119 19.9981 19.5105 19.9981 18.1519C19.9981 16.7933 18.8967 15.6919 17.5381 15.6919C16.1795 15.6919 15.0781 16.7933 15.0781 18.1519C15.0781 19.5105 16.1795 20.6119 17.5381 20.6119Z" stroke="#FAFDFF" stroke-width="1.5" stroke-miterlimit="10" stroke-linecap="round" stroke-linejoin="round"/>
<path d="M6.46001 20.6119C7.81863 20.6119 8.92 19.5105 8.92 18.1519C8.92 16.7933 7.81863 15.6919 6.46001 15.6919C5.10139 15.6919 4 16.7933 4 18.1519C4 19.5105 5.10139 20.6119 6.46001 20.6119Z" stroke="#FAFDFF" stroke-width="1.5" stroke-miterlimit="10" stroke-linecap="round" stroke-linejoin="round"/>
</svg>
