<svg width="24" height="25" viewBox="0 0 24 25" fill="none" xmlns="http://www.w3.org/2000/svg">
<path d="M22 17.3225V5.25246C22 4.05246 21.02 3.16246 19.83 3.26246H19.77C17.67 3.44246 14.48 4.51246 12.7 5.63246L12.53 5.74246C12.24 5.92246 11.76 5.92246 11.47 5.74246L11.22 5.59246C9.44 4.48246 6.26 3.42246 4.16 3.25246C2.97 3.15246 2 4.05246 2 5.24246V17.3225C2 18.2825 2.78 19.1825 3.74 19.3025L4.03 19.3425C6.2 19.6325 9.55 20.7325 11.47 21.7825L11.51 21.8025C11.78 21.9525 12.21 21.9525 12.47 21.8025C14.39 20.7425 17.75 19.6325 19.93 19.3425L20.26 19.3025C21.22 19.1825 22 18.2825 22 17.3225Z" stroke="#6A778B" style="stroke:#6A778B;stroke:color(display-p3 0.4157 0.4667 0.5451);stroke-opacity:1;" stroke-width="1.5" stroke-linecap="round" stroke-linejoin="round"/>
<path d="M12 6.07251V21.0725" stroke="#6A778B" style="stroke:#6A778B;stroke:color(display-p3 0.4157 0.4667 0.5451);stroke-opacity:1;" stroke-width="1.5" stroke-linecap="round" stroke-linejoin="round"/>
<path d="M7.75 9.07251H5.5" stroke="#6A778B" style="stroke:#6A778B;stroke:color(display-p3 0.4157 0.4667 0.5451);stroke-opacity:1;" stroke-width="1.5" stroke-linecap="round" stroke-linejoin="round"/>
<path d="M8.5 12.0725H5.5" stroke="#6A778B" style="stroke:#6A778B;stroke:color(display-p3 0.4157 0.4667 0.5451);stroke-opacity:1;" stroke-width="1.5" stroke-linecap="round" stroke-linejoin="round"/>
</svg>
