<svg width="15" height="15" viewBox="0 0 15 15" fill="none" xmlns="http://www.w3.org/2000/svg">
<path d="M11.2498 4.475C11.2123 4.46875 11.1686 4.46875 11.1311 4.475C10.2686 4.44375 9.58105 3.7375 9.58105 2.8625C9.58105 1.96875 10.2998 1.25 11.1936 1.25C12.0873 1.25 12.8061 1.975 12.8061 2.8625C12.7998 3.7375 12.1123 4.44375 11.2498 4.475Z" stroke="#838E9E" stroke-width="1.5" stroke-linecap="round" stroke-linejoin="round"/>
<path d="M10.6062 9.0251C11.4624 9.16885 12.4062 9.01885 13.0687 8.5751C13.9499 7.9876 13.9499 7.0251 13.0687 6.4376C12.3999 5.99385 11.4437 5.84385 10.5874 5.99385" stroke="#838E9E" stroke-width="1.5" stroke-linecap="round" stroke-linejoin="round"/>
<path d="M3.73106 4.475C3.76856 4.46875 3.8123 4.46875 3.8498 4.475C4.7123 4.44375 5.3998 3.7375 5.3998 2.8625C5.3998 1.96875 4.68106 1.25 3.78731 1.25C2.89356 1.25 2.1748 1.975 2.1748 2.8625C2.18105 3.7375 2.86856 4.44375 3.73106 4.475Z" stroke="#838E9E" stroke-width="1.5" stroke-linecap="round" stroke-linejoin="round"/>
<path d="M4.3749 9.0251C3.51865 9.16885 2.5749 9.01885 1.9124 8.5751C1.03115 7.9876 1.03115 7.0251 1.9124 6.4376C2.58115 5.99385 3.5374 5.84385 4.39365 5.99385" stroke="#838E9E" stroke-width="1.5" stroke-linecap="round" stroke-linejoin="round"/>
<path d="M7.50029 9.14395C7.46279 9.1377 7.41904 9.1377 7.38154 9.14395C6.51904 9.1127 5.83154 8.40645 5.83154 7.53145C5.83154 6.6377 6.55029 5.91895 7.44404 5.91895C8.33779 5.91895 9.05654 6.64395 9.05654 7.53145C9.05029 8.40645 8.36279 9.11895 7.50029 9.14395Z" stroke="#838E9E" stroke-width="1.5" stroke-linecap="round" stroke-linejoin="round"/>
<path d="M5.68145 11.1126C4.8002 11.7001 4.8002 12.6626 5.68145 13.2501C6.68145 13.9188 8.31894 13.9188 9.31894 13.2501C10.2002 12.6626 10.2002 11.7001 9.31894 11.1126C8.32519 10.4501 6.68145 10.4501 5.68145 11.1126Z" stroke="#838E9E" stroke-width="1.5" stroke-linecap="round" stroke-linejoin="round"/>
</svg>
