<svg width="24" height="25" viewBox="0 0 24 25" fill="none" xmlns="http://www.w3.org/2000/svg">
<path d="M3 9.69263V15.4626C3 17.5826 3 17.5826 5 18.9326L10.5 22.1126C11.33 22.5926 12.68 22.5926 13.5 22.1126L19 18.9326C21 17.5826 21 17.5826 21 15.4726V9.69263C21 7.58263 21 7.58263 19 6.23263L13.5 3.05263C12.68 2.57263 11.33 2.57263 10.5 3.05263L5 6.23263C3 7.58263 3 7.58263 3 9.69263Z" stroke="#6A778B" stroke-width="1.5" stroke-linecap="round" stroke-linejoin="round"/>
<path d="M12 15.5825C13.6569 15.5825 15 14.2394 15 12.5825C15 10.9257 13.6569 9.58252 12 9.58252C10.3431 9.58252 9 10.9257 9 12.5825C9 14.2394 10.3431 15.5825 12 15.5825Z" stroke="#6A778B" stroke-width="1.5" stroke-linecap="round" stroke-linejoin="round"/>
</svg>
